


[center]

[img]http://img714.imageshack.us/img714/55/ktq927g5.jpg[/img]
Flypaper.2011.LiMiTED.PROPER.DVDRip.XviD-EXViD

EXViD aims to iNTERNAL those releases which have been lost in the archives
EXViD aims to PRE non-internal releases which have poor sources and are likely skipped by others
 
http://www.imdb.com/title/tt1541160/
Subtitles: NL
Date: 2012.02
Director: Rob Minkoff

Genres: Comedy | Crime

[Plot]
A man caught in the middle of two simultaneous robberies at the same bank desperately tries to
protect the teller with whom he's secretly in love

Cast:
Patrick Dempsey ... Tripp Kennedy
Ashley Judd ... Kaitlin
Tim Blake Nelson ... Billy Ray 'Peanut Butter' McCloud
Mekhi Phifer ... Darrien
Matt Ryan ... Gates
Jeffrey Tambor ... Gordon Blythe
John Ventimiglia ... Weinstein
Pruitt Taylor Vince ... Wyatt 'Jelly' Jenkins
Curtis Armstrong ... Mitchell Wolf
Rob Huebel ... Rex Newbauer
Adrian Martinez ... Mr. Clean
Natalia Safran ... Swiss Miss
Octavia Spencer ... Madge Wiggins
Eddie Matthews ... Jack Hayes
Rob Boltin ... Credit Manager

Stats:
Format: AVI
Format/Info: Audio Video Interleave
File size: 699 MiB
Duration: 1h 23mn
Overall bit rate: 1 169 Kbps
Writing application: VirtualDubMod 1.5.10.2 (build 2540/release)
Writing library: VirtualDubMod build 2540/release

Video
ID: 0
Format: MPEG-4 Visual
Format profile: Advanced Simple@L5
Format settings, BVOP: Yes
Format settings, QPel: No
Format settings, GMC: No warppoints
Format settings, Matrix: Default (H.263)
Muxing mode: Packed bitstream
Codec ID: XVID
Codec ID/Hint: XviD
Duration: 1h 23mn
Bit rate: 711 Kbps
Width: 640 pixels
Height: 272 pixels
Display aspect ratio: 2.35:1
Frame rate: 25.000 fps
Color space: YUV
Chroma subsampling: 4:2:0
Bit depth: 8 bits
Scan type: Progressive
Bits/(Pixel*Frame): 0.163
Stream size: 425 MiB (61%)
Writing library: XviD 62

Audio
ID: 1
Format: AC-3
Format/Info: Audio Coding 3
Mode extension: CM (complete main)
Codec ID: 2000
Duration: 1h 23mn
Bit rate mode: Constant
Bit rate: 448 Kbps
Channel(s): 6 channels
Channel positions: Front: L C R, Side: L R, LFE
Sampling rate: 48.0 KHz
Bit depth: 16 bits
Stream size: 268 MiB (38%)
Alignment: Split accross interleaves
Interleave, duration: 40 ms (1.00 video frame)
Interleave, preload duration: 500 ms
[/center]